<svg version="1.1" id="Layer_1" xmlns="http://www.w3.org/2000/svg" xmlns:xlink="http://www.w3.org/1999/xlink" x="0px" y="0px" viewBox="0 0 1866 389" style="enable-background:new 0 0 1866 389;" xml:space="preserve">
  <style type="text/css">
    .st0{fill-rule:evenodd;clip-rule:evenodd;fill:#00AA4E;}
	.st1{fill-rule:evenodd;clip-rule:evenodd;fill:#FFC10E;}
  </style>
  <g>
    <polygon class="st0" points="75.1,56.1 301,56.1 300.7,137 75.1,137 	"/>
    <polygon class="st0" points="75.1,158 300.6,158 301.2,231.5 183.4,230.5 183.4,256.6 301.2,256 300.6,334.5 75.1,334.5 	"/>
    <path class="st0" d="M343.4,56.1h108.5c-32.1,39.9,106,109.8,103.6,166.7c-2.3,54.2-27.3,100.1-88.6,110.8L329.4,336l0.4-79.6
		l96.6-0.4C532.4,220.1,304.2,158,343.4,56.1"/>
    <path class="st1" d="M194.4,160c18.8,5.7,82.4,19.1,93.6,25.4l-104.4,74.7c-11,7.6-97.5,66.5-104.2,75.3
		c54.3-24.8,303.2-137.7,314.8-152c-8.1-0.4-75.2-22.1-85.5-28.3c10.4-6.4,134.9-91.5,143-102.1C419.7,57,219.1,144.8,194.4,160"/>
  </g>
  <g>
    <g>
      <path fill="white" d="M603.5,258.7c-1.4,0-2.5-0.4-3.4-1.3s-1.3-2-1.3-3.4V132.3c0-1.4,0.4-2.5,1.3-3.4c0.9-0.9,2-1.3,3.4-1.3h84.8
			c1.4,0,2.5,0.4,3.4,1.3c0.9,0.9,1.3,2,1.3,3.4v15c0,1.2-0.4,2.3-1.3,3.2c-0.9,0.9-2,1.3-3.4,1.3h-60.7v29.4h56.5
			c1.4,0,2.5,0.4,3.4,1.3c0.9,0.9,1.3,2,1.3,3.4v13.9c0,1.2-0.4,2.3-1.3,3.2c-0.9,0.9-2,1.3-3.4,1.3h-56.5v30.3h62.2
			c1.4,0,2.5,0.4,3.4,1.3c0.9,0.9,1.3,2,1.3,3.4v14.8c0,1.4-0.4,2.5-1.3,3.4c-0.9,0.9-2,1.3-3.4,1.3h-86.3V258.7z"/>
      <path fill="white" d="M719.1,258.7c-1.2,0-2.3-0.4-3.2-1.3s-1.3-2-1.3-3.4v-88c0-1.4,0.4-2.5,1.3-3.4c0.9-0.9,1.9-1.3,3.2-1.3h18.4
			c1.4,0,2.5,0.4,3.4,1.3c0.9,0.9,1.3,2,1.3,3.4v7.3c3.2-4,7.4-7.3,12.5-9.9c5.1-2.6,11.3-3.9,18.7-3.9s13.8,1.7,19.4,5
			c5.6,3.3,9.9,8.1,13.1,14.4c3.2,6.3,4.8,13.9,4.8,22.9V254c0,1.4-0.5,2.5-1.4,3.4s-2,1.3-3.3,1.3h-19.8c-1.4,0-2.5-0.4-3.4-1.3
			c-0.9-0.9-1.3-2-1.3-3.4v-51.1c0-6.6-1.6-11.8-4.8-15.4c-3.2-3.7-7.8-5.5-13.9-5.5c-5.9,0-10.5,1.8-14,5.5s-5.2,8.8-5.2,15.4V254
			c0,1.4-0.4,2.5-1.3,3.4c-0.9,0.9-1.9,1.3-3.2,1.3H719.1z"/>
      <path fill="white" d="M876.6,260.6c-14.4,0-25.7-4-34.2-12c-8.4-8-12.9-19.6-13.4-34.8c0-1,0-2.3,0-4s0-3,0-4c0.5-9.6,2.7-17.9,6.6-24.8
			c3.9-6.9,9.3-12.2,16.3-15.9s15.2-5.5,24.5-5.5c10.5,0,19.2,2.1,26.3,6.5c7.1,4.3,12.4,10.2,15.9,17.6c3.6,7.4,5.3,15.9,5.3,25.5
			v4.3c0,1.2-0.5,2.3-1.4,3.2s-2,1.3-3.3,1.3H858c0,0.1,0,0.4,0,0.7s0,0.6,0,0.8c0.1,4,0.9,7.6,2.3,11c1.4,3.3,3.5,6,6.2,8
			s5.9,3,9.6,3c3.1,0,5.7-0.4,7.7-1.3c2-0.9,3.7-1.9,5-3.2s2.3-2.3,2.9-3.2c1.1-1.2,2-2,2.7-2.3s1.8-0.5,3.3-0.5h19.5
			c1.2,0,2.3,0.3,3.1,1s1.2,1.7,1,2.9c-0.1,2-1.2,4.5-3.1,7.4c-1.9,2.9-4.8,5.8-8.5,8.6s-8.4,5.1-13.9,7
			C890.2,259.6,883.8,260.6,876.6,260.6z M858.1,200.9h36.7v-0.4c0-4.5-0.7-8.4-2.2-11.7s-3.5-5.9-6.3-7.8c-2.7-1.9-6.1-2.8-9.9-2.8
			s-7.2,0.9-9.9,2.8c-2.7,1.9-4.8,4.5-6.3,7.8c-1.4,3.3-2.2,7.2-2.2,11.7v0.4H858.1z"/>
      <path fill="white" d="M947.2,258.7c-1.2,0-2.3-0.4-3.2-1.3s-1.3-2-1.3-3.4v-88c0-1.2,0.4-2.3,1.3-3.3c0.9-0.9,1.9-1.4,3.2-1.4h18.4
			c1.2,0,2.3,0.5,3.3,1.4c0.9,0.9,1.4,2,1.4,3.3v7.5c3.1-3.9,7-6.9,11.5-9c4.6-2.1,9.8-3.2,15.8-3.2h8.1c1.2,0,2.3,0.4,3.2,1.3
			c0.9,0.9,1.3,2,1.3,3.4v16.1c0,1.4-0.4,2.5-1.3,3.4c-0.9,0.9-1.9,1.3-3.2,1.3h-16.5c-5.5,0-9.8,1.5-12.9,4.6
			c-3.1,3.1-4.7,7.4-4.7,13V254c0,1.4-0.4,2.5-1.3,3.4c-0.9,0.9-2,1.3-3.4,1.3H947.2z"/>
      <path fill="white" d="M1068.7,299.9c-9.2,0-16.9-1.2-23-3.7c-6.1-2.4-11-5.4-14.5-8.8c-3.6-3.4-6.1-6.8-7.6-10.2s-2.3-6-2.4-7.9
			c-0.1-1.4,0.3-2.5,1.3-3.4s2.1-1.3,3.4-1.3h20c1.1,0,2.1,0.3,2.9,0.8c0.8,0.6,1.5,1.5,2,2.9c0.6,1.5,1.5,3.1,2.6,4.8
			c1.1,1.7,2.8,3.1,5.1,4.2c2.3,1.1,5.4,1.7,9.3,1.7c4.4,0,8-0.6,10.9-1.9s5-3.4,6.5-6.4c1.4-3,2.2-7,2.2-12.2V246
			c-3,3.3-6.8,5.9-11.3,8.1c-4.6,2.1-10.1,3.2-16.8,3.2c-6.5,0-12.2-1-17.1-3.1c-4.9-2.1-9-5-12.3-8.8c-3.2-3.8-5.7-8.4-7.5-13.8
			c-1.8-5.4-2.7-11.4-3-18.2c-0.1-3.4-0.1-6.7,0-9.9c0.2-6.5,1.2-12.4,3-17.8c1.7-5.4,4.2-10,7.5-13.9c3.2-3.9,7.3-7,12.3-9.2
			c4.9-2.2,10.6-3.3,17.1-3.3c6.9,0,12.7,1.3,17.6,3.9c4.9,2.6,8.9,5.9,12,9.7v-7.1c0-1.2,0.4-2.3,1.3-3.3c0.9-0.9,1.9-1.4,3.2-1.4
			h18.4c1.2,0,2.3,0.5,3.3,1.4c0.9,0.9,1.4,2,1.4,3.3l0.2,90c0,9.4-1.8,17.3-5.4,23.8s-9,11.4-16,14.9
			C1087.9,298.2,1079.1,299.9,1068.7,299.9z M1067.7,235.5c4.5,0,8.1-1,11-3.1c2.8-2.1,4.9-4.7,6.3-7.9s2.1-6.5,2.2-10
			c0.1-1.4,0.2-3.3,0.2-5.9c0-2.6-0.1-4.5-0.2-5.9c-0.1-3.5-0.9-6.8-2.2-10c-1.4-3.2-3.5-5.8-6.3-7.8s-6.5-3-11-3
			c-4.7,0-8.5,1-11.2,3.1s-4.7,4.8-6,8.1c-1.2,3.4-2,7.1-2.2,11c-0.1,3-0.1,5.9,0,8.8c0.3,4.1,1,7.9,2.2,11.2c1.2,3.4,3.2,6.1,6,8.1
			C1059.2,234.5,1063,235.5,1067.7,235.5z"/>
      <path fill="white" d="M1143.9,146.4c-1.2,0-2.3-0.4-3.2-1.3c-0.9-0.9-1.3-2-1.3-3.4v-15c0-1.4,0.4-2.5,1.3-3.5c0.9-0.9,1.9-1.4,3.2-1.4h19.7
			c1.4,0,2.5,0.5,3.5,1.4c0.9,0.9,1.4,2.1,1.4,3.5v15c0,1.4-0.5,2.5-1.4,3.4c-0.9,0.9-2.1,1.3-3.5,1.3H1143.9z M1144.5,258.7
			c-1.2,0-2.3-0.4-3.2-1.3c-0.9-0.9-1.3-2-1.3-3.4v-88c0-1.4,0.4-2.5,1.3-3.4c0.9-0.9,1.9-1.3,3.2-1.3h18.7c1.4,0,2.5,0.4,3.4,1.3
			c0.9,0.9,1.3,2,1.3,3.4v88c0,1.4-0.4,2.5-1.3,3.4s-2,1.3-3.4,1.3H1144.5z"/>
      <path fill="white" d="M1240.5,260.6c-12,0-22-1.8-30.1-5.2c-8-3.5-14.1-8.1-18.3-13.7c-4.1-5.6-6.3-11.6-6.6-18c0-1,0.4-1.9,1.1-2.7
			c0.8-0.8,1.7-1.2,2.8-1.2h20c1.6,0,2.9,0.4,3.7,1c0.9,0.7,1.7,1.5,2.4,2.5c0.9,2.1,2.3,4.2,4.2,6.2c1.9,2,4.6,3.6,8,5
			c3.4,1.3,7.5,2,12.5,2c8.1,0,14.2-1.3,18.3-3.9c4.1-2.6,6.1-6.2,6.1-10.7c0-3.2-1.1-5.9-3.3-7.9c-2.2-2-5.6-3.8-10.3-5.4
			c-4.7-1.6-10.9-3.4-18.6-5.2c-9.4-2-17.3-4.6-23.9-7.8s-11.5-7.3-14.8-12.4c-3.3-5.1-5-11.3-5-18.8s2.1-14.1,6.2-19.9
			s9.9-10.4,17.4-13.7c7.5-3.3,16.4-5,26.8-5c8.4,0,15.8,1.1,22.2,3.4c6.4,2.2,11.8,5.2,16.1,8.8c4.3,3.6,7.6,7.5,9.8,11.6
			c2.2,4.1,3.4,8.1,3.6,12c0,1-0.4,1.9-1.1,2.7s-1.7,1.2-2.8,1.2h-21c-1.2,0-2.4-0.2-3.4-0.7s-1.8-1.4-2.4-2.6
			c-0.7-3.2-3-6.1-6.6-8.5c-3.7-2.4-8.5-3.7-14.3-3.7c-6.1,0-10.9,1.1-14.5,3.4s-5.3,5.7-5.3,10.3c0,3,0.9,5.5,2.7,7.6
			c1.8,2.1,4.9,3.9,9.2,5.4c4.3,1.6,10,3.3,17.1,5.1c11,2.2,19.9,4.9,26.8,8.1c6.9,3.1,11.9,7.1,15.2,12.1
			c3.2,4.9,4.9,11.1,4.9,18.6c0,8.4-2.3,15.5-7,21.5s-11.1,10.6-19.3,13.8C1260.9,259,1251.4,260.6,1240.5,260.6z"/>
      <path fill="white" d="M1318,294.3c-1.4,0-2.5-0.4-3.4-1.3c-0.9-0.9-1.3-2-1.3-3.4V166c0-1.4,0.4-2.5,1.3-3.4c0.9-0.9,2-1.3,3.4-1.3h17.8
			c1.4,0,2.5,0.4,3.4,1.3c0.9,0.9,1.3,2,1.3,3.4v7.1c3-4,6.9-7.3,11.6-9.8c4.7-2.6,10.7-3.8,17.8-3.8c6.5,0,12.1,1,16.9,3.1
			c4.8,2.1,8.9,5,12.2,8.8c3.3,3.8,5.9,8.4,7.7,13.8c1.8,5.4,2.8,11.4,3.1,18.2c0.1,2.4,0.2,4.6,0.2,6.7c0,2.1-0.1,4.4-0.2,6.9
			c-0.1,6.4-1.1,12.2-2.9,17.6c-1.8,5.4-4.4,10-7.8,13.8c-3.4,3.9-7.5,6.9-12.3,9s-10.5,3.2-16.9,3.2s-11.9-1.2-16.6-3.5
			c-4.7-2.3-8.5-5.5-11.5-9.5v41.9c0,1.4-0.4,2.5-1.3,3.4s-1.9,1.3-3.2,1.3H1318V294.3z M1361.4,238.1c4.7,0,8.5-1,11.2-3.1
			s4.7-4.8,5.9-8.1c1.2-3.4,1.9-7,2.2-11c0.2-3.9,0.2-7.7,0-11.6c-0.3-4-1-7.7-2.2-11c-1.2-3.4-3.2-6.1-5.9-8.1
			c-2.7-2.1-6.5-3.1-11.2-3.1c-4.6,0-8.4,1.1-11.2,3.2c-2.9,2.1-4.9,4.8-6.2,8c-1.2,3.3-2,6.7-2.2,10.5c-0.1,2.2-0.2,4.6-0.2,6.9
			c0,2.4,0.1,4.7,0.2,7.1c0.1,3.5,0.9,6.8,2.3,9.8c1.4,3.1,3.6,5.6,6.4,7.6C1353.3,237.1,1357,238.1,1361.4,238.1z"/>
      <path fill="white" d="M1473.2,260.6c-14.4,0-25.7-4-34.2-12c-8.4-8-12.9-19.6-13.4-34.8c0-1,0-2.3,0-4s0-3,0-4c0.5-9.6,2.7-17.9,6.6-24.8
			c3.9-6.9,9.3-12.2,16.3-15.9s15.2-5.5,24.5-5.5c10.5,0,19.2,2.1,26.3,6.5c7.1,4.3,12.4,10.2,15.9,17.6c3.6,7.4,5.3,15.9,5.3,25.5
			v4.3c0,1.2-0.5,2.3-1.4,3.2s-2,1.3-3.3,1.3h-61.2c0,0.1,0,0.4,0,0.7s0,0.6,0,0.8c0.1,4,0.9,7.6,2.3,11c1.4,3.3,3.5,6,6.2,8
			s5.9,3,9.6,3c3.1,0,5.7-0.4,7.7-1.3c2-0.9,3.7-1.9,5-3.2s2.3-2.3,2.9-3.2c1.1-1.2,2-2,2.7-2.3s1.8-0.5,3.3-0.5h19.5
			c1.2,0,2.3,0.3,3.1,1c0.8,0.7,1.2,1.7,1,2.9c-0.1,2-1.2,4.5-3.1,7.4s-4.8,5.8-8.5,8.6s-8.4,5.1-13.9,7
			C1486.8,259.6,1480.4,260.6,1473.2,260.6z M1454.7,200.9h36.7v-0.4c0-4.5-0.7-8.4-2.2-11.7c-1.4-3.3-3.5-5.9-6.3-7.8
			c-2.7-1.9-6.1-2.8-9.9-2.8c-3.9,0-7.2,0.9-9.9,2.8c-2.7,1.9-4.8,4.5-6.3,7.8c-1.4,3.3-2.2,7.2-2.2,11.7v0.4H1454.7z"/>
      <path fill="white" d="M1567.9,260.6c-6.6,0-12.5-1.3-17.8-3.8c-5.3-2.5-9.4-6-12.5-10.4s-4.7-9.2-4.7-14.6c0-8.9,3.6-15.8,10.8-21
			c7.2-5.1,16.6-8.6,28.4-10.5l24.5-3.6v-3.4c0-4.9-1.1-8.6-3.4-11.2s-6.2-3.9-11.8-3.9c-4.1,0-7.4,0.8-9.9,2.4
			c-2.5,1.6-4.4,3.7-5.8,6.4c-1,1.6-2.4,2.4-4.3,2.4h-17.8c-1.4,0-2.4-0.4-3.2-1.2c-0.8-0.8-1.1-1.8-0.9-2.9c0-2.1,0.8-4.6,2.4-7.5
			s4.1-5.7,7.5-8.5s7.7-5.1,12.9-7c5.2-1.9,11.7-2.8,19.3-2.8c7.9,0,14.6,0.9,20.2,2.8c5.6,1.9,10.1,4.5,13.5,7.9
			c3.4,3.4,5.9,7.3,7.5,11.7c1.6,4.4,2.4,9.2,2.4,14.3V254c0,1.4-0.4,2.5-1.3,3.4s-2,1.3-3.4,1.3h-18.3c-1.2,0-2.3-0.4-3.2-1.3
			c-0.9-0.9-1.3-2-1.3-3.4v-6.9c-1.6,2.4-3.8,4.6-6.6,6.6c-2.7,2.1-6,3.7-9.8,5C1577.5,260,1573,260.6,1567.9,260.6z M1575.4,241.1
			c4.1,0,7.8-0.9,11-2.6c3.2-1.7,5.8-4.4,7.7-8.1c1.9-3.6,2.8-8.2,2.8-13.7v-3.2l-17.4,2.8c-6.7,1.1-11.7,2.8-14.8,5.1
			c-3.1,2.2-4.7,5-4.7,8.2c0,2.4,0.7,4.4,2.2,6.2c1.4,1.7,3.3,3.1,5.7,3.9S1572.8,241.1,1575.4,241.1z"/>
      <path fill="white" d="M1652.5,258.7c-1.4,0-2.5-0.4-3.4-1.3s-1.3-2-1.3-3.4V130.5c0-1.4,0.4-2.5,1.3-3.4s2-1.3,3.4-1.3h18.3
			c1.2,0,2.3,0.4,3.2,1.3c0.9,0.9,1.3,2,1.3,3.4v63.3l28.8-29.2c1-0.9,1.9-1.6,2.7-2.2c0.8-0.6,2.1-0.9,3.8-0.9h21.2
			c1.2,0,2.2,0.4,3,1.2c0.7,0.8,1.1,1.8,1.1,2.9c0,0.5-0.1,1.1-0.4,1.7c-0.3,0.6-0.7,1.1-1.3,1.5l-36.1,36.3l40.8,46.6
			c1.1,1,1.7,2,1.7,3c0,1.1-0.4,2.1-1.2,2.9c-0.8,0.8-1.8,1.2-2.9,1.2h-21.7c-1.9,0-3.2-0.3-4-0.9s-1.7-1.4-2.7-2.2l-32.8-36.7v35.2
			c0,1.4-0.4,2.5-1.3,3.4s-1.9,1.3-3.2,1.3h-18.3V258.7z"/>
    </g>
    <g>
      <path fill="white" d="M1761,150.5c-4.3,0-8.2-0.8-11.9-2.4c-3.7-1.6-6.9-3.8-9.8-6.6c-2.8-2.8-5-6.1-6.6-9.8s-2.4-7.7-2.4-11.9
			c0-4.3,0.8-8.2,2.4-11.9s3.8-7,6.6-9.8c2.8-2.8,6.1-5,9.8-6.6c3.7-1.6,7.7-2.4,11.9-2.4c4.3,0,8.2,0.8,11.9,2.4
			c3.7,1.6,6.9,3.8,9.8,6.6c2.8,2.8,5,6.1,6.6,9.8c1.6,3.7,2.4,7.7,2.4,11.9c0,4.3-0.8,8.2-2.4,11.9c-1.6,3.7-3.8,6.9-6.6,9.8
			c-2.8,2.8-6.1,5-9.8,6.6C1769.2,149.7,1765.2,150.5,1761,150.5z M1761,144c3.4,0,6.5-0.6,9.3-1.9c2.9-1.3,5.4-3,7.5-5.2
			c2.2-2.2,3.9-4.8,5.1-7.7c1.3-2.9,1.9-6,1.9-9.3s-0.6-6.4-1.9-9.3c-1.2-2.9-3-5.5-5.1-7.7c-2.2-2.2-4.7-4-7.5-5.2
			c-2.9-1.3-6-1.9-9.3-1.9s-6.4,0.6-9.2,1.9c-2.9,1.3-5.4,3-7.5,5.2c-2.2,2.2-3.9,4.8-5.1,7.7c-1.3,2.9-1.9,6-1.9,9.3
			s0.6,6.4,1.9,9.3c1.2,2.9,3,5.5,5.1,7.7c2.2,2.2,4.7,4,7.5,5.2C1754.6,143.3,1757.7,144,1761,144z M1750.6,135.3
			c-1.3,0-1.9-0.6-1.9-1.9V106c0-1.3,0.6-1.9,1.9-1.9h11.7c2.2,0,4.2,0.3,6.1,1c1.9,0.7,3.5,1.7,4.7,3.2s1.8,3.5,1.8,6.1
			c0,2.3-0.5,4.1-1.6,5.6c-1.1,1.4-2.3,2.5-3.9,3.2l4.8,9c0.1,0.2,0.2,0.3,0.3,0.5c0.1,0.2,0.1,0.4,0.1,0.7c0,0.5-0.2,0.9-0.5,1.3
			c-0.3,0.4-0.8,0.6-1.4,0.6h-4.3c-0.6,0-1.1-0.1-1.4-0.4c-0.4-0.3-0.7-0.7-1-1.2l-4.4-8.9h-4.6v8.7c0,1.3-0.6,1.9-1.9,1.9
			L1750.6,135.3L1750.6,135.3z M1756.9,118h5.2c1.6,0,2.8-0.4,3.4-1.1s0.9-1.6,0.9-2.6s-0.3-1.8-0.9-2.5s-1.8-1.1-3.4-1.1h-5.2V118z
			"/>
    </g>
  </g>
</svg>
